# xmcd CD database file
#
# Track frame offsets:
#	150
#	15540
#	32745
#	54450
#	74077
#	90595
#	107340
#	126207
#	143850
#	159075
#	174162
#
# Disc length: 2644 seconds
#
# Revision: 0
# Processed by: cddbd v1.5PL3 Copyright (c) Steve Scherf et al.
# Submitted via: CDex 1.50
#
DISCID=850a520b
DTITLE=ARB - KAZA-BANA
DYEAR=1900
DGENRE=Rock
TTITLE0=まぶしきコノ世
TTITLE1=KAZA-BANA
TTITLE2=プレゼント
TTITLE3=魂のハグ
TTITLE4=独立記念日
TTITLE5=涙の河
TTITLE6=LOVE YOUR LIFE
TTITLE7=迷子のジョー
TTITLE8=プロテスト・ソング
TTITLE9=サスライ
TTITLE10=戦場のイマジン
EXTD=
EXTT0=
EXTT1=
EXTT2=
EXTT3=
EXTT4=
EXTT5=
EXTT6=
EXTT7=
EXTT8=
EXTT9=
EXTT10=
PLAYORDER=
